<?xml version="1.0" encoding="UTF-8" standalone="no"?>
<!-- Created with Inkscape (http://www.inkscape.org/) -->

<svg
   version="1.1"
   id="svg25"
   width="128.50882"
   height="27.861643"
   viewBox="0 0 128.50882 27.861643"
   sodipodi:docname="opencve_v2_logo_white2.svg"
   inkscape:version="1.2.2 (b0a8486, 2022-12-01)"
   xmlns:inkscape="http://www.inkscape.org/namespaces/inkscape"
   xmlns:sodipodi="http://sodipodi.sourceforge.net/DTD/sodipodi-0.dtd"
   xmlns="http://www.w3.org/2000/svg"
   xmlns:svg="http://www.w3.org/2000/svg">
  <sodipodi:namedview
     id="namedview21"
     pagecolor="#ffffff"
     bordercolor="#999999"
     borderopacity="1"
     inkscape:pageshadow="0"
     inkscape:pageopacity="0"
     inkscape:pagecheckerboard="0"
     showgrid="false"
     inkscape:zoom="5"
     inkscape:cx="62"
     inkscape:cy="37.7"
     inkscape:window-width="1440"
     inkscape:window-height="847"
     inkscape:window-x="1080"
     inkscape:window-y="531"
     inkscape:window-maximized="1"
     inkscape:current-layer="g4263"
     fit-margin-top="0"
     fit-margin-left="0"
     fit-margin-right="0"
     fit-margin-bottom="0"
     inkscape:showpageshadow="0"
     inkscape:deskcolor="#d1d1d1" />
  <defs
     id="defs29" />
  <g
     id="g31"
     transform="matrix(0.22946214,0,0,0.22946214,-1.4372124,-1.9693188)"
     style="fill:#666666">
    <g
       id="g4263">
      <g
         aria-label="OpenCVE"
         transform="matrix(0.75648166,0,0,0.79101458,-42.227491,1.8403262)"
         id="text334"
         style="font-size:116.668px;line-height:1.25;font-family:'American Typewriter';-inkscape-font-specification:'American Typewriter';fill:#f9f9f9;stroke-width:2.9167">
        <path
           d="m 342.59754,50.566139 q 5.18398,5.696679 7.91839,13.956865 2.79137,8.260185 2.79137,18.742076 0,10.48189 -2.84834,18.79904 -2.79137,8.26019 -7.86142,13.78597 -5.24094,5.75364 -12.41876,8.65895 -7.12085,2.90531 -16.2925,2.90531 -8.94379,0 -16.29251,-2.96228 -7.29175,-2.96227 -12.41876,-8.60198 -5.12701,-5.63972 -7.91838,-13.84293 -2.73441,-8.203223 -2.73441,-18.74208 0,-10.367957 2.73441,-18.571176 2.7344,-8.260185 7.97535,-14.127765 5.01308,-5.582746 12.41876,-8.54502 7.46265,-2.962273 16.23554,-2.962273 9.11468,0 16.34947,3.01924 7.29175,2.962273 12.36179,8.488053 z m -1.0254,32.698941 q 0,-16.520371 -7.40568,-25.464158 -7.40569,-9.000754 -20.22322,-9.000754 -12.93146,0 -20.33714,9.000754 -7.34872,8.943787 -7.34872,25.464158 0,16.691271 7.51962,25.57809 7.51961,8.82985 20.16624,8.82985 12.64663,0 20.10928,-8.82985 7.51962,-8.886819 7.51962,-25.57809 z"
           style="font-family:'Apple Braille';-inkscape-font-specification:'Apple Braille';fill:#f9f9f9"
           id="path9410" />
        <path
           d="m 426.33873,93.063369 q 0,7.747481 -2.2217,14.184731 -2.22171,6.38028 -6.26635,10.82369 -3.75981,4.21555 -8.88682,6.55118 -5.07005,2.27868 -10.76673,2.27868 -4.95611,0 -9.00075,-1.08237 -3.98768,-1.08237 -8.14625,-3.36104 V 149.1187 H 370.34037 V 62.016465 h 10.70976 v 6.665115 q 4.27251,-3.588908 9.57042,-5.981514 5.35488,-2.449572 11.39336,-2.449572 11.50729,0 17.88757,8.71592 6.43725,8.658953 6.43725,24.096955 z m -11.05156,0.284834 q 0,-11.507293 -3.93071,-17.203973 -3.9307,-5.696679 -12.07696,-5.696679 -4.61431,0 -9.28558,1.993838 -4.67128,1.993837 -8.94379,5.240945 v 36.059986 q 4.55734,2.0508 7.80445,2.79137 3.30407,0.74057 7.46265,0.74057 8.94379,0 13.95687,-6.03848 5.01307,-6.03848 5.01307,-17.887577 z"
           style="font-family:'Apple Braille';-inkscape-font-specification:'Apple Braille';fill:#f9f9f9"
           id="path9412" />
        <path
           d="m 496.29396,94.943273 h -46.88367 q 0,5.867577 1.76597,10.254027 1.76597,4.32947 4.84218,7.12085 2.96227,2.7344 7.00691,4.10161 4.10161,1.3672 9.00076,1.3672 6.49421,0 13.04539,-2.56351 6.60815,-2.62047 9.39952,-5.12701 h 0.56967 v 11.67819 q -5.41184,2.27868 -11.05156,3.81678 -5.63971,1.5381 -11.84909,1.5381 -15.83677,0 -24.72359,-8.54502 -8.88682,-8.60198 -8.88682,-24.381785 0,-15.608902 8.48805,-24.780557 8.54502,-9.171654 22.44492,-9.171654 12.8745,0 19.82445,7.519617 7.00691,7.519617 7.00691,21.362549 z m -10.42492,-8.203219 q -0.057,-8.431085 -4.27251,-13.045396 -4.15858,-4.61431 -12.7036,-4.61431 -8.60198,0 -13.729,5.070044 -5.07004,5.070045 -5.75364,12.589662 z"
           style="font-family:'Apple Braille';-inkscape-font-specification:'Apple Braille';fill:#f9f9f9"
           id="path9414" />
        <path
           d="M 565.73648,125.64838 H 555.02672 V 89.417494 q 0,-4.386443 -0.5127,-8.203219 -0.5127,-3.873742 -1.87991,-6.03848 -1.42417,-2.392606 -4.10161,-3.531942 -2.67744,-1.196302 -6.94995,-1.196302 -4.38644,0 -9.17165,2.164738 -4.78521,2.164738 -9.17165,5.525779 V 125.64838 H 512.52949 V 62.016465 h 10.70976 v 7.063883 q 5.01307,-4.158577 10.36795,-6.494215 5.35488,-2.335639 10.99459,-2.335639 10.311,0 15.72284,6.209381 5.41185,6.209381 5.41185,17.887574 z"
           style="font-family:'Apple Braille';-inkscape-font-specification:'Apple Braille';fill:#f9f9f9"
           id="path9416" />
        <path
           d="m 652.72479,119.49596 q -3.13318,1.36721 -5.69668,2.56351 -2.50654,1.1963 -6.60815,2.50654 -3.47498,1.08237 -7.57659,1.82293 -4.04464,0.79754 -8.94378,0.79754 -9.22862,0 -16.80521,-2.56351 -7.51962,-2.62047 -13.10236,-8.14625 -5.46881,-5.41184 -8.54502,-13.729 -3.07621,-8.374115 -3.07621,-19.425673 0,-10.481891 2.96228,-18.742076 2.96227,-8.260186 8.54502,-13.956866 5.41184,-5.525779 13.04539,-8.431085 7.69052,-2.905307 17.03307,-2.905307 6.83602,0 13.61507,1.652037 6.83601,1.652037 15.15317,5.810613 V 60.13656 h -0.85451 q -7.00691,-5.86758 -13.89989,-8.545019 -6.89299,-2.677439 -14.7544,-2.677439 -6.43725,0 -11.62123,2.107771 -5.12701,2.050805 -9.17166,6.437248 -3.9307,4.27251 -6.15241,10.823691 -2.16474,6.494215 -2.16474,15.039235 0,8.943787 2.39261,15.381035 2.44957,6.437248 6.26635,10.481888 3.98767,4.21555 9.28558,6.26635 5.35488,1.99384 11.27943,1.99384 8.14625,0 15.2671,-2.79138 7.12085,-2.79137 13.33023,-8.37411 h 0.79754 z"
           style="font-family:'Apple Braille';-inkscape-font-specification:'Apple Braille';fill:#f9f9f9"
           id="path9418" />
        <path
           d="M 735.66844,40.824816 704.79243,125.64838 H 689.7532 L 658.87719,40.824816 h 12.07696 l 26.6035,74.626504 26.60349,-74.626504 z"
           style="font-family:'Apple Braille';-inkscape-font-specification:'Apple Braille';fill:#f9f9f9"
           id="path9420" />
        <path
           d="M 804.42735,125.64838 H 748.54293 V 40.824816 h 55.88442 v 10.026157 h -44.605 v 23.242453 h 44.605 v 10.026156 h -44.605 v 31.502638 h 44.605 z"
           style="font-family:'Apple Braille';-inkscape-font-specification:'Apple Braille';fill:#f9f9f9"
           id="path9422" />
      </g>
      <g
         id="g242"
         transform="matrix(0.80381574,0,0,0.80381574,-134.59705,-364.78349)">
        <path
           class="cls-1"
           d="m 235.7,540 c 0,-12.51 10.13,-22.64 22.64,-22.64 12.51,0 22.64,10.13 22.64,22.64 0,12.51 -10.13,22.64 -22.64,22.64 -12.51,0 -22.64,-10.13 -22.64,-22.64 z"
           id="path238"
           style="fill:#f9f9f9;fill-opacity:1;stroke-width:0px" />
        <path
           class="cls-3"
           d="m 304.14,588.47 -18.01,-18.26 c -7.31,6.73 -17.07,10.84 -27.79,10.84 -22.67,0 -41.04,-18.37 -41.04,-41.04 0,-22.67 18.37,-41.04 41.04,-41.04 10.72,0 20.48,4.11 27.79,10.84 l 18.01,-18.26 c -11.95,-11.3 -28.06,-18.23 -45.8,-18.23 -36.84,0 -66.7,29.87 -66.7,66.7 0,36.83 29.87,66.7 66.7,66.7 17.74,0 33.85,-6.94 45.8,-18.23 z"
           id="path240"
           style="fill:#f9f9f9;fill-opacity:1;stroke-width:0px" />
      </g>
    </g>
  </g>
</svg>
