<?xml version="1.0" encoding="UTF-8" standalone="no"?>
<!-- Generator: Adobe Illustrator 27.2.0, SVG Export Plug-In . SVG Version: 6.00 Build 0)  -->

<svg
   version="1.1"
   id="Layer_1"
   x="0px"
   y="0px"
   viewBox="0 0 313.36731 60.000002"
   xml:space="preserve"
   sodipodi:docname="FO21E05F3F708a7_rev3-06.svg"
   width="313.36731"
   height="60.000004"
   inkscape:export-filename="../../../Desktop/logo_60h.png"
   inkscape:export-xdpi="96"
   inkscape:export-ydpi="96"
   xmlns:inkscape="http://www.inkscape.org/namespaces/inkscape"
   xmlns:sodipodi="http://sodipodi.sourceforge.net/DTD/sodipodi-0.dtd"
   xmlns="http://www.w3.org/2000/svg"
   xmlns:svg="http://www.w3.org/2000/svg"><defs
   id="defs4950" /><sodipodi:namedview
   id="namedview4948"
   pagecolor="#ffffff"
   bordercolor="#999999"
   borderopacity="1"
   inkscape:showpageshadow="0"
   inkscape:pageopacity="0"
   inkscape:pagecheckerboard="0"
   inkscape:deskcolor="#d1d1d1"
   showgrid="false" />
<style
   type="text/css"
   id="style4874">
	.st0{fill:#090131;}
	.st1{fill:url(#SVGID_1_);}
	.st2{fill:url(#SVGID_00000118387526525064467700000011704798587487799952_);}
	.st3{fill:url(#SVGID_00000152957054767073364570000005888972083779006379_);}
	.st4{fill:url(#SVGID_00000160894584045423801370000001753764558313295508_);}
	.st5{fill:url(#SVGID_00000124133992786678756030000011219380719213190292_);}
	.st6{fill:url(#SVGID_00000047781729241995152650000014623884803412004013_);}
	.st7{fill:url(#SVGID_00000103981306082980768060000010197714420308147887_);}
	.st8{fill:url(#SVGID_00000075138707820112034630000016444521894395281553_);}
	.st9{fill:url(#SVGID_00000047778317194501687210000012903497846047365306_);}
	.st10{fill:url(#SVGID_00000089553659721529286900000011834000671017483182_);}
	.st11{fill:url(#SVGID_00000132083482564059387050000002848817139629648292_);}
	.st12{fill:url(#SVGID_00000096758713205291630920000010913262283502683522_);}
	.st13{fill:url(#SVGID_00000134218603585714467110000006522074589008083885_);}
	.st14{fill:url(#SVGID_00000002354603807268370060000017476865463262407580_);}
	.st15{fill:url(#SVGID_00000147906505274149267370000007914923014164835768_);}
	.st16{fill:#FFFFFF;}
	.st17{fill:url(#SVGID_00000137132541319029972920000014582826358743711632_);}
	.st18{fill:url(#SVGID_00000096754686105726588500000016937220171990994589_);}
	.st19{fill:url(#SVGID_00000047753933769800666610000005921687041870985120_);}
	.st20{fill:url(#SVGID_00000049201868857143497370000001396832058954704554_);}
	.st21{fill:url(#SVGID_00000139986050573165366720000014329277681526717861_);}
	.st22{fill:url(#SVGID_00000090270975094692232840000011895465042690056100_);}
	.st23{fill:url(#SVGID_00000013897983632673247700000003220280285768814499_);}
	.st24{fill:url(#SVGID_00000102538403306464650790000009405843130765668497_);}
	.st25{fill:url(#SVGID_00000031894128124190148750000005896924262485193891_);}
	.st26{fill:url(#SVGID_00000171696817432074688510000011538077322312973989_);}
	.st27{fill:url(#SVGID_00000170270764540872332240000014968090904356619649_);}
	.st28{fill:url(#SVGID_00000145050987332658794470000018128200694581677479_);}
	.st29{fill:url(#SVGID_00000108276890680017330750000016218470142202864823_);}
	.st30{fill:url(#SVGID_00000061472743717373853010000012593712231265556906_);}
	.st31{fill:url(#SVGID_00000177471842628816213500000017143212003149360818_);}
	.st32{fill:url(#SVGID_00000130644071977107806900000016283742443474917505_);}
	.st33{fill:url(#SVGID_00000067917329146755849300000011356154189351987358_);}
	.st34{fill:url(#SVGID_00000029745939015217283800000001251190897371859608_);}
	.st35{fill:url(#SVGID_00000138549474080232128900000000777890598210938020_);}
	.st36{fill:url(#SVGID_00000119102458286683317980000004118882825733438895_);}
	.st37{fill:url(#SVGID_00000158713856131317371050000007256018951209422738_);}
	.st38{fill:url(#SVGID_00000090289413649990339060000003435872335289121981_);}
	.st39{fill:url(#SVGID_00000182525392719358493750000004768541779174690463_);}
	.st40{fill:url(#SVGID_00000161631579497118455270000003856247609567404221_);}
	.st41{fill:url(#SVGID_00000168088581634269263740000007128068005302455177_);}
	.st42{fill:url(#SVGID_00000054960041807155527400000014688250616798306718_);}
	.st43{fill:url(#SVGID_00000053508382652939286310000013205340498123814815_);}
	.st44{fill:url(#SVGID_00000064353376582417958360000002445245144154564021_);}
	.st45{fill:url(#SVGID_00000104699059379738266490000014917244739600145589_);}
	.st46{fill:url(#SVGID_00000093159476957744039240000000182716889583289527_);}
</style>
<g
   id="g4945"
   transform="matrix(0.44977511,0,0,0.44977511,-86.194901,-212.88756)">
	<g
   id="g4892">
		<linearGradient
   id="SVGID_1_"
   gradientUnits="userSpaceOnUse"
   x1="258.57291"
   y1="499.55209"
   x2="258.00851"
   y2="597.19592">
			<stop
   offset="0"
   style="stop-color:#921999"
   id="stop4876" />
			<stop
   offset="1"
   style="stop-color:#2E077E"
   id="stop4878" />
		</linearGradient>
		<path
   class="st1"
   d="m 235.7,540 c 0,-12.51 10.13,-22.64 22.64,-22.64 12.51,0 22.64,10.13 22.64,22.64 0,12.51 -10.13,22.64 -22.64,22.64 -12.51,0 -22.64,-10.13 -22.64,-22.64 z"
   id="path4881"
   style="fill:url(#SVGID_1_)" />
		<g
   id="g4890">
			
				<linearGradient
   id="SVGID_00000023961601327636182180000011390750637612375704_"
   gradientUnits="userSpaceOnUse"
   x1="3798.7432"
   y1="-995.9873"
   x2="3932.1484"
   y2="-995.9873"
   gradientTransform="rotate(90,1288.6728,-2036.7731)">
				<stop
   offset="0"
   style="stop-color:#921999"
   id="stop4883" />
				<stop
   offset="1"
   style="stop-color:#2E077E"
   id="stop4885" />
			</linearGradient>
			<path
   style="fill:url(#SVGID_00000023961601327636182180000011390750637612375704_)"
   d="m 304.14,588.47 -18.01,-18.26 c -7.31,6.73 -17.07,10.84 -27.79,10.84 -22.67,0 -41.04,-18.37 -41.04,-41.04 0,-22.67 18.37,-41.04 41.04,-41.04 10.72,0 20.48,4.11 27.79,10.84 l 18.01,-18.26 c -11.95,-11.3 -28.06,-18.23 -45.8,-18.23 -36.84,0 -66.7,29.87 -66.7,66.7 0,36.84 29.87,66.7 66.7,66.7 17.74,-0.02 33.85,-6.96 45.8,-18.25 z"
   id="path4888" />
		</g>
	</g>
	<g
   id="g4943">
		
			<linearGradient
   id="SVGID_00000122678799788683920580000004240445500091518382_"
   gradientUnits="userSpaceOnUse"
   x1="380.0162"
   y1="530.37158"
   x2="635.1402"
   y2="512.28448">
			<stop
   offset="0"
   style="stop-color:#921999"
   id="stop4894" />
			<stop
   offset="1"
   style="stop-color:#2E077E"
   id="stop4896" />
		</linearGradient>
		<path
   style="fill:url(#SVGID_00000122678799788683920580000004240445500091518382_)"
   d="m 350.44,529.32 c 0,-25.57 18.4,-44.96 44.39,-44.96 25.71,0 44.11,19.39 44.11,44.96 0,25.57 -18.4,44.96 -44.11,44.96 -25.99,0 -44.39,-19.39 -44.39,-44.96 z m 70.94,0 c 0,-16.58 -11.1,-29.08 -26.55,-29.08 -15.59,0 -26.83,12.5 -26.83,29.08 0,16.58 11.24,29.08 26.83,29.08 15.46,0 26.55,-12.5 26.55,-29.08 z"
   id="path4899" />
		
			<linearGradient
   id="SVGID_00000009570292439095620220000017697361264589014950_"
   gradientUnits="userSpaceOnUse"
   x1="382.2179"
   y1="561.42767"
   x2="637.34192"
   y2="543.34058">
			<stop
   offset="0"
   style="stop-color:#921999"
   id="stop4901" />
			<stop
   offset="1"
   style="stop-color:#2E077E"
   id="stop4903" />
		</linearGradient>
		<path
   style="fill:url(#SVGID_00000009570292439095620220000017697361264589014950_)"
   d="m 515.09,540 c 0,20.09 -11.38,34.28 -29.92,34.28 -8.29,0 -15.31,-3.37 -19.95,-9.83 v 40.88 h -17.28 v -98.34 h 17 v 8.99 c 4.64,-6.88 11.8,-10.4 20.23,-10.4 18.54,0 29.92,14.19 29.92,34.42 z m -17.14,0 c 0,-12.08 -7.3,-19.25 -16.72,-19.25 -7.59,0 -14.05,4.22 -16.02,12.92 v 12.5 c 1.97,8.85 8.43,13.07 16.02,13.07 9.41,0.01 16.72,-7.16 16.72,-19.24 z"
   id="path4906" />
		
			<linearGradient
   id="SVGID_00000101075639095079295200000001246839471942085557_"
   gradientUnits="userSpaceOnUse"
   x1="381.55829"
   y1="552.12372"
   x2="636.68231"
   y2="534.0365">
			<stop
   offset="0"
   style="stop-color:#921999"
   id="stop4908" />
			<stop
   offset="1"
   style="stop-color:#2E077E"
   id="stop4910" />
		</linearGradient>
		<path
   style="fill:url(#SVGID_00000101075639095079295200000001246839471942085557_)"
   d="m 585.61,543.51 h -48.75 c 0.98,10.54 8.29,16.72 17.98,16.72 5.34,0 11.8,-2.25 16.72,-8.29 l 10.12,8.43 c -7.31,9.69 -17.84,13.91 -28.1,13.91 -19.53,0 -33.44,-14.33 -33.44,-34.14 0,-20.37 14.19,-34.56 33.44,-34.56 18.54,0 32.17,13.35 32.17,34.7 0,0.98 -0.14,2.11 -0.14,3.23 z m -48.46,-9.69 h 32.17 c -1.4,-10.11 -7.59,-15.31 -15.59,-15.31 -7.73,0 -14.9,5.19 -16.58,15.31 z"
   id="path4913" />
		
			<linearGradient
   id="SVGID_00000080205856318048219260000016583286197470936502_"
   gradientUnits="userSpaceOnUse"
   x1="381.91641"
   y1="557.17493"
   x2="637.04041"
   y2="539.08783">
			<stop
   offset="0"
   style="stop-color:#921999"
   id="stop4915" />
			<stop
   offset="1"
   style="stop-color:#2E077E"
   id="stop4917" />
		</linearGradient>
		<path
   style="fill:url(#SVGID_00000080205856318048219260000016583286197470936502_)"
   d="m 656,530.87 v 42.01 h -17.28 v -37.51 c 0.14,-10.96 -4.64,-14.89 -12.64,-14.89 -5.9,0 -12.08,3.37 -14.47,11.24 v 41.16 h -17.28 v -65.89 h 15.45 v 9.41 c 4.5,-6.88 12.08,-10.68 21.21,-10.68 15.45,0 25.01,8.57 25.01,25.15 z"
   id="path4920" />
		
			<linearGradient
   id="SVGID_00000098181403577729185610000004149592071769913016_"
   gradientUnits="userSpaceOnUse"
   x1="801.96637"
   y1="-145.10291"
   x2="712.49792"
   y2="481.17731">
			<stop
   offset="0"
   style="stop-color:#921999"
   id="stop4922" />
			<stop
   offset="1"
   style="stop-color:#2E077E"
   id="stop4924" />
		</linearGradient>
		<path
   style="fill:url(#SVGID_00000098181403577729185610000004149592071769913016_)"
   d="m 665.27,529.32 c 0,-25.57 18.68,-44.96 44.82,-44.96 12.22,0 22.76,5.34 30.2,11.8 l -10.12,12.36 c -4.78,-4.07 -11.1,-7.59 -18.82,-7.59 -16.86,0 -27.54,11.94 -27.54,28.1 0,16.16 10.68,28.66 27.54,28.66 7.87,0 14.61,-3.51 19.67,-8.71 l 10.96,11.94 c -8.43,8.15 -19.67,13.35 -31.47,13.35 -26.7,0.01 -45.24,-19.38 -45.24,-44.95 z"
   id="path4927" />
		
			<linearGradient
   id="SVGID_00000078739519456259109210000014469559976180549539_"
   gradientUnits="userSpaceOnUse"
   x1="873.97137"
   y1="-134.8165"
   x2="784.50269"
   y2="491.46371">
			<stop
   offset="0"
   style="stop-color:#921999"
   id="stop4929" />
			<stop
   offset="1"
   style="stop-color:#2E077E"
   id="stop4931" />
		</linearGradient>
		<path
   style="fill:url(#SVGID_00000078739519456259109210000014469559976180549539_)"
   d="m 779.77,574.42 -36.53,-88.65 h 20.09 l 22.34,60.27 h 0.84 l 22.34,-60.27 h 18.54 l -35.96,88.65 z"
   id="path4934" />
		
			<linearGradient
   id="SVGID_00000079481581556037572390000004418622527757595317_"
   gradientUnits="userSpaceOnUse"
   x1="954.27722"
   y1="-123.3442"
   x2="864.80859"
   y2="502.936">
			<stop
   offset="0"
   style="stop-color:#921999"
   id="stop4936" />
			<stop
   offset="1"
   style="stop-color:#2E077E"
   id="stop4938" />
		</linearGradient>
		<path
   style="fill:url(#SVGID_00000079481581556037572390000004418622527757595317_)"
   d="m 852.4,558.4 h 35.96 v 14.47 h -54.65 v -87.1 h 53.24 v 14.47 H 852.4 v 21.49 h 30.34 V 535.5 H 852.4 Z"
   id="path4941" />
	</g>
</g>
</svg>
